<svg xmlns="http://www.w3.org/2000/svg" width="100" height="100" viewBox="0 0 500 500" fill="none">
  <path d="M250 0C111.929 0 0 111.929 0 250C0 388.071 111.929 500 250 500C388.071 500 500 388.071 500 250C500 111.929 388.071 0 250 0ZM250 454.545C137.054 454.545 45.4545 362.946 45.4545 250C45.4545 137.054 137.054 45.4545 250 45.4545C362.946 45.4545 454.545 137.054 454.545 250C454.545 362.946 362.946 454.545 250 454.545Z" fill="#a0a0a0"/>
  <path d="M363.636 181.818C363.636 181.818 318.182 136.364 250 136.364C181.818 136.364 136.364 181.818 136.364 250C136.364 318.182 181.818 363.636 250 363.636C318.182 363.636 363.636 318.182 363.636 250" fill="#a0a0a0"/>
</svg>
